<svg xmlns="http://www.w3.org/2000/svg" xmlns:xlink="http://www.w3.org/1999/xlink"><symbol id="icon-calendar" viewBox="0 0 24 24"><path d="M20 20h-4v-4h4v4zm-6-10h-4v4h4v-4zm6 0h-4v4h4v-4zm-12 6h-4v4h4v-4zm6 0h-4v4h4v-4zm-6-6h-4v4h4v-4zm16-8v22h-24v-22h3v1c0 1.103.897 2 2 2s2-.897 2-2v-1h10v1c0 1.103.897 2 2 2s2-.897 2-2v-1h3zm-2 6h-20v14h20v-14zm-2-7c0-.552-.447-1-1-1s-1 .448-1 1v2c0 .552.447 1 1 1s1-.448 1-1v-2zm-14 2c0 .552-.447 1-1 1s-1-.448-1-1v-2c0-.552.447-1 1-1s1 .448 1 1v2z"/></symbol><symbol id="icon-cart" viewBox="264.205 370.961 20.294 18.849">
  <path fill="#231F20" d="M283.75,378.19h-3.151l-3.407-6.814c-0.185-0.37-0.634-0.52-1.006-0.335 c-0.371,0.186-0.521,0.636-0.335,1.006l3.071,6.143h-9.138l3.072-6.143c0.185-0.371,0.035-0.821-0.335-1.006 c-0.37-0.185-0.821-0.035-1.006,0.335l-3.407,6.814h-3.151c-0.414,0-0.75,0.336-0.75,0.75s0.336,0.75,0.75,0.75h0.157l0.855,2.991 c-0.187,0.137-0.316,0.347-0.316,0.595c0,0.396,0.309,0.71,0.697,0.739l1.656,5.795h12.697l1.656-5.795 c0.388-0.028,0.698-0.344,0.698-0.739c0-0.249-0.129-0.459-0.316-0.596l0.854-2.991h0.157c0.414,0,0.75-0.336,0.75-0.75 S284.164,378.19,283.75,378.19z M279.569,388.311h-10.433l-1.224-4.284h12.881L279.569,388.311z M281.222,382.526h-13.739 l-0.81-2.836h15.359L281.222,382.526z"/>
</symbol><symbol id="icon-fb" viewBox="0 0 24 24"><path d="M9 8h-3v4h3v12h5v-12h3.642l.358-4h-4v-1.667c0-.955.192-1.333 1.115-1.333h2.885v-5h-3.808c-3.596 0-5.192 1.583-5.192 4.615v3.385z"/></symbol><symbol id="icon-google" viewBox="0 0 24 24"><path d="M7 11v2.4h3.97c-.16 1.029-1.2 3.02-3.97 3.02-2.39 0-4.34-1.979-4.34-4.42 0-2.44 1.95-4.42 4.34-4.42 1.36 0 2.27.58 2.79 1.08l1.9-1.83c-1.22-1.14-2.8-1.83-4.69-1.83-3.87 0-7 3.13-7 7s3.13 7 7 7c4.04 0 6.721-2.84 6.721-6.84 0-.46-.051-.81-.111-1.16h-6.61zm0 0 17 2h-3v3h-2v-3h-3v-2h3v-3h2v3h3v2z" fill-rule="evenodd" clip-rule="evenodd"/></symbol><symbol id="icon-mobile" viewBox="0 0 24 24"><path d="M19 2c0-1.104-.896-2-2-2h-10c-1.104 0-2 .896-2 2v20c0 1.104.896 2 2 2h10c1.104 0 2-.896 2-2v-20zm-8.5 0h3c.276 0 .5.224.5.5s-.224.5-.5.5h-3c-.276 0-.5-.224-.5-.5s.224-.5.5-.5zm1.5 20c-.553 0-1-.448-1-1s.447-1 1-1c.552 0 .999.448.999 1s-.447 1-.999 1zm5-3h-10v-14.024h10v14.024z"/></symbol><symbol id="icon-phone" viewBox="0 0 24.829 24.333">
  <g>
    <g id="UrwUhy_2_">
      <g>
        <path d="M17.321,24.333c-0.371,0-0.744,0-1.115,0c-4.904-0.58-8.497-2.857-11.11-5.772C2.473,15.637,0.402,11.875,0,6.817 c0-0.453,0-0.906,0-1.358c0.091-0.921,0.544-1.55,1.067-2.086c0.65-0.666,1.63-1.522,2.522-1.553 c0.659-0.022,1.78,0.451,2.232,1.066c0.388,0.53,0.595,1.59,0.775,2.378c0.185,0.797,0.6,1.95,0.485,2.717 C6.905,9.177,5.317,9.684,4.85,10.553c1.551,3.721,4.089,6.456,7.472,8.345c0.847-0.465,1.595-1.864,2.767-1.892 c0.428-0.012,0.972,0.209,1.406,0.34c0.477,0.143,0.891,0.326,1.311,0.484c0.705,0.266,1.957,0.621,2.378,1.213 c0.433,0.61,0.681,1.608,0.581,2.231C20.571,22.508,18.538,23.877,17.321,24.333z"/>
      </g>
    </g>
    <path d="M12.529,1.528c5.949,0,10.771,4.822,10.771,10.771h1.529C24.829,5.507,19.323,0,12.529,0V1.528z"/>
    <path d="M12.529,9.327v1.552c0.785,0,1.421,0.636,1.421,1.42h1.553C15.502,10.657,14.172,9.327,12.529,9.327z"/>
    <path d="M12.529,6.246c3.345,0,6.056,2.71,6.056,6.054h1.588c0-4.22-3.422-7.641-7.644-7.641V6.246z"/>
  </g>
</symbol><symbol id="icon-pin" viewBox="0 0 22 32">
<path d="M11 0C4.93471 0 0 4.78519 0 10.6667C0 12.4323 0.455231 14.1829 1.32064 15.7357L10.3985 31.6562C10.5193 31.8685 10.7496 32 11 32C11.2504 32 11.4807 31.8685 11.6015 31.6562L20.6827 15.7304C21.5448 14.1829 22 12.4323 22 10.6666C22 4.78519 17.0653 0 11 0ZM19.4762 15.0905L11 29.9557L2.52714 15.0964C1.77317 13.7435 1.37504 12.2116 1.37504 10.6667C1.37504 5.52019 5.69275 1.33337 11 1.33337C16.3073 1.33337 20.625 5.52025 20.625 10.6667C20.625 12.2116 20.2268 13.7435 19.4762 15.0905Z"/>
<path d="M11 5.33329C7.96737 5.33329 5.50005 7.72585 5.50005 10.6666C5.50005 13.6074 7.96737 16 11 16C14.0327 16 16.5 13.6074 16.5 10.6667C16.5 7.72592 14.0327 5.33329 11 5.33329ZM11 14.6667C8.72534 14.6667 6.87502 12.8724 6.87502 10.6667C6.87502 8.46092 8.72534 6.66667 11 6.66667C13.2747 6.66667 15.125 8.46092 15.125 10.6667C15.125 12.8724 13.2747 14.6667 11 14.6667Z"/>
</symbol><symbol id="icon-tel" viewBox="0 0 24 24"><path d="M20 22.621l-3.521-6.795c-.008.004-1.974.97-2.064 1.011-2.24 1.086-6.799-7.82-4.609-8.994l2.083-1.026-3.493-6.817-2.106 1.039c-7.202 3.755 4.233 25.982 11.6 22.615.121-.055 2.102-1.029 2.11-1.033z"/></symbol><symbol id="icon-time" viewBox="0 0 24 24"><path d="M12 2c5.514 0 10 4.486 10 10s-4.486 10-10 10-10-4.486-10-10 4.486-10 10-10zm0-2c-6.627 0-12 5.373-12 12s5.373 12 12 12 12-5.373 12-12-5.373-12-12-12zm1 12v-6h-2v8h7v-2h-5z"/></symbol><symbol id="icon-tw" viewBox="0 0 24 24"><path d="M24 4.557c-.883.392-1.832.656-2.828.775 1.017-.609 1.798-1.574 2.165-2.724-.951.564-2.005.974-3.127 1.195-.897-.957-2.178-1.555-3.594-1.555-3.179 0-5.515 2.966-4.797 6.045-4.091-.205-7.719-2.165-10.148-5.144-1.29 2.213-.669 5.108 1.523 6.574-.806-.026-1.566-.247-2.229-.616-.054 2.281 1.581 4.415 3.949 4.89-.693.188-1.452.232-2.224.084.626 1.956 2.444 3.379 4.6 3.419-2.07 1.623-4.678 2.348-7.29 2.04 2.179 1.397 4.768 2.212 7.548 2.212 9.142 0 14.307-7.721 13.995-14.646.962-.695 1.797-1.562 2.457-2.549z"/></symbol><symbol id="icon-user" viewBox="0 0 24 24"><path d="M20.822 18.096c-3.439-.794-6.64-1.49-5.09-4.418 4.72-8.912 1.251-13.678-3.732-13.678-5.082 0-8.464 4.949-3.732 13.678 1.597 2.945-1.725 3.641-5.09 4.418-3.073.71-3.188 2.236-3.178 4.904l.004 1h23.99l.004-.969c.012-2.688-.092-4.222-3.176-4.935z"/></symbol><symbol id="icon-vk" viewBox="0 0 24 24"><path class="st0" d="M13.162 18.994c.609 0 .858-.406.851-.915-.031-1.917.714-2.949 2.059-1.604 1.488 1.488 1.796 2.519 3.603 2.519h3.2c.808 0 1.126-.26 1.126-.668 0-.863-1.421-2.386-2.625-3.504-1.686-1.565-1.765-1.602-.313-3.486 1.801-2.339 4.157-5.336 2.073-5.336h-3.981c-.772 0-.828.435-1.103 1.083-.995 2.347-2.886 5.387-3.604 4.922-.751-.485-.407-2.406-.35-5.261.015-.754.011-1.271-1.141-1.539-.629-.145-1.241-.205-1.809-.205-2.273 0-3.841.953-2.95 1.119 1.571.293 1.42 3.692 1.054 5.16-.638 2.556-3.036-2.024-4.035-4.305-.241-.548-.315-.974-1.175-.974h-3.255c-.492 0-.787.16-.787.516 0 .602 2.96 6.72 5.786 9.77 2.756 2.975 5.48 2.708 7.376 2.708z"/></symbol></svg>